{
  "accessors": [
    {
      "bufferView": 2,
      "componentType": 5126,
      "count": 3180,
      "max": [
        2.0554115772247314,
        8.090009689331055,
        4.551909446716309
      ],
      "min": [
        -2.0554115772247314,
        0.28585100173950195,
        -1.5464783906936646
      ],
      "type": "VEC3"
    },
    {
      "bufferView": 2,
      "byteOffset": 38160,
      "componentType": 5126,
      "count": 3180,
      "max": [
        0.9999551177024841,
        0.9999731779098511,
        0.9996209144592285
      ],
      "min": [
        -0.9999551177024841,
        -1.0,
        -0.9999657869338989
      ],
      "type": "VEC3"
    },
    {
      "bufferView": 1,
      "componentType": 5126,
      "count": 3180,
      "max": [
        0.987659752368927,
        0.9517601728439331
      ],
      "min": [
        0.011544018983840942,
        0.011143116280436516
      ],
      "type": "VEC2"
    },
    {
      "bufferView": 0,
      "componentType": 5125,
      "count": 17136,
      "type": "SCALAR"
    },
    {
      "bufferView": 2,
      "byteOffset": 76320,
      "componentType": 5126,
      "count": 66,
      "max": [
        0.3975907862186432,
        6.150021076202393,
        4.871508598327637
      ],
      "min": [
        -0.3975907862186432,
        5.296864986419678,
        4.387526988983154
      ],
      "type": "VEC3"
    },
    {
      "bufferView": 2,
      "byteOffset": 77112,
      "componentType": 5126,
      "count": 66,
      "max": [
        0.9938960671424866,
        0.951708972454071,
        0.9963587522506714
      ],
      "min": [
        -0.9938960671424866,
        -0.9810875654220581,
        -0.008103316649794579
      ],
      "type": "VEC3"
    },
    {
      "bufferView": 1,
      "byteOffset": 25440,
      "componentType": 5126,
      "count": 66,
      "max": [
        0.7107260227203369,
        0.7656502723693848
      ],
      "min": [
        0.6367171406745911,
        0.18882568180561066
      ],
      "type": "VEC2"
    },
    {
      "bufferView": 0,
      "byteOffset": 68544,
      "componentType": 5125,
      "count": 288,
      "type": "SCALAR"
    },
    {
      "bufferView": 2,
      "byteOffset": 77904,
      "componentType": 5126,
      "count": 584,
      "max": [
        1.0778303146362305,
        0.3475307524204254,
        1.8071620464324951
      ],
      "min": [
        -1.0778303146362305,
        -0.04736199975013733,
        -1.4369794130325317
      ],
      "type": "VEC3"
    },
    {
      "bufferView": 2,
      "byteOffset": 84912,
      "componentType": 5126,
      "count": 584,
      "max": [
        0.9981327056884766,
        0.9990460872650146,
        0.9994240999221802
      ],
      "min": [
        -0.9981328248977661,
        -0.997032642364502,
        -0.9965554475784302
      ],
      "type": "VEC3"
    },
    {
      "bufferView": 1,
      "byteOffset": 25968,
      "componentType": 5126,
      "count": 584,
      "max": [
        0.9856212139129639,
        0.49031132459640503
      ],
      "min": [
        0.011544018983840942,
        0.011148333549499512
      ],
      "type": "VEC2"
    },
    {
      "bufferView": 0,
      "byteOffset": 69696,
      "componentType": 5125,
      "count": 2880,
      "type": "SCALAR"
    },
    {
      "bufferView": 2,
      "byteOffset": 91920,
      "componentType": 5126,
      "count": 952,
      "max": [
        2.2280709743499756,
        9.450594902038574,
        3.2315549850463867
      ],
      "min": [
        -2.2280709743499756,
        7.347228050231934,
        1.841943621635437
      ],
      "type": "VEC3"
    },
    {
      "bufferView": 2,
      "byteOffset": 103344,
      "componentType": 5126,
      "count": 952,
      "max": [
        0.9840291738510132,
        0.9999960064888,
        0.9997164607048035
      ],
      "min": [
        -0.984029233455658,
        -0.9761996269226074,
        -0.9917697906494141
      ],
      "type": "VEC3"
    },
    {
      "bufferView": 1,
      "byteOffset": 30640,
      "componentType": 5126,
      "count": 952,
      "max": [
        0.9884560108184814,
        0.9486327171325684
      ],
      "min": [
        0.011544018983840942,
        0.011115445755422115
      ],
      "type": "VEC2"
    },
    {
      "bufferView": 0,
      "byteOffset": 81216,
      "componentType": 5125,
      "count": 3696,
      "type": "SCALAR"
    },
    {
      "bufferView": 2,
      "byteOffset": 114768,
      "componentType": 5126,
      "count": 285,
      "max": [
        0.892562985420227,
        6.669778347015381,
        4.0485382080078125
      ],
      "min": [
        0.38826096057891846,
        5.980744361877441,
        3.4888410568237305
      ],
      "type": "VEC3"
    },
    {
      "bufferView": 2,
      "byteOffset": 118188,
      "componentType": 5126,
      "count": 285,
      "max": [
        0.9944748282432556,
        0.9996650218963623,
        0.9995957612991333
      ],
      "min": [
        -0.9944747090339661,
        -0.999665379524231,
        -0.9995957612991333
      ],
      "type": "VEC3"
    },
    {
      "bufferView": 1,
      "byteOffset": 38256,
      "componentType": 5126,
      "count": 285,
      "max": [
        1.0,
        1.0
      ],
      "min": [
        0.0,
        0.0
      ],
      "type": "VEC2"
    },
    {
      "bufferView": 0,
      "byteOffset": 96000,
      "componentType": 5125,
      "count": 1440,
      "type": "SCALAR"
    },
    {
      "bufferView": 2,
      "byteOffset": 121608,
      "componentType": 5126,
      "count": 285,
      "max": [
        -0.38826093077659607,
        6.669778823852539,
        4.0485382080078125
      ],
      "min": [
        -0.892562985420227,
        5.9807448387146,
        3.4888412952423096
      ],
      "type": "VEC3"
    },
    {
      "bufferView": 2,
      "byteOffset": 125028,
      "componentType": 5126,
      "count": 285,
      "max": [
        0.9944747686386108,
        0.9996649026870728,
        0.999595582485199
      ],
      "min": [
        -0.9944748878479004,
        -0.9996652603149414,
        -0.9995957612991333
      ],
      "type": "VEC3"
    },
    {
      "bufferView": 1,
      "byteOffset": 40536,
      "componentType": 5126,
      "count": 285,
      "max": [
        1.0,
        1.0
      ],
      "min": [
        -1.704222540865885e-09,
        0.0
      ],
      "type": "VEC2"
    },
    {
      "bufferView": 0,
      "byteOffset": 101760,
      "componentType": 5125,
      "count": 1440,
      "type": "SCALAR"
    },
    {
      "bufferView": 2,
      "byteOffset": 128448,
      "componentType": 5126,
      "count": 117,
      "max": [
        0.3361920118331909,
        6.051303863525391,
        4.887173652648926
      ],
      "min": [
        -0.33619198203086853,
        5.66498327255249,
        4.638010501861572
      ],
      "type": "VEC3"
    },
    {
      "bufferView": 2,
      "byteOffset": 129852,
      "componentType": 5126,
      "count": 117,
      "max": [
        0.9339845776557922,
        0.9480241537094116,
        0.993439793586731
      ],
      "min": [
        -0.9339836835861206,
        -0.9270558953285217,
        -0.9657584428787231
      ],
      "type": "VEC3"
    },
    {
      "bufferView": 1,
      "byteOffset": 42816,
      "componentType": 5126,
      "count": 117,
      "max": [
        0.9391584396362305,
        0.2598547041416168
      ],
      "min": [
        0.8537286520004272,
        0.14594829082489014
      ],
      "type": "VEC2"
    },
    {
      "bufferView": 0,
      "byteOffset": 107520,
      "componentType": 5125,
      "count": 576,
      "type": "SCALAR"
    }
  ],
  "asset": {
    "extras": {
      "author": "MrPuppet (https://sketchfab.com/MrPuppet)",
      "license": "CC-BY-4.0 (http://creativecommons.org/licenses/by/4.0/)",
      "source": "https://sketchfab.com/3d-models/deer-puppet-2c12a6a8d2964abebb54aa1010331d04",
      "title": "Deer puppet"
    },
    "generator": "Sketchfab-15.38.0",
    "version": "2.0"
  },
  "bufferViews": [
    {
      "buffer": 0,
      "byteLength": 109824,
      "name": "floatBufferViews",
      "target": 34963
    },
    {
      "buffer": 0,
      "byteLength": 43752,
      "byteOffset": 109824,
      "byteStride": 8,
      "name": "floatBufferViews",
      "target": 34962
    },
    {
      "buffer": 0,
      "byteLength": 131256,
      "byteOffset": 153576,
      "byteStride": 12,
      "name": "floatBufferViews",
      "target": 34962
    }
  ],
  "buffers": [
    {
      "byteLength": 284832,
      "uri": "scene.bin"
    }
  ],
  "materials": [
    {
      "doubleSided": true,
      "name": "lambert4",
      "pbrMetallicRoughness": {
        "baseColorFactor": [
          0.418,
          0.307864,
          0.206492,
          1.0
        ],
        "metallicFactor": 0.0,
        "roughnessFactor": 0.6
      }
    },
    {
      "doubleSided": true,
      "name": "lambert5",
      "pbrMetallicRoughness": {
        "baseColorFactor": [
          0.867,
          0.777159,
          0.694467,
          1.0
        ],
        "metallicFactor": 0.0,
        "roughnessFactor": 0.6
      }
    },
    {
      "doubleSided": true,
      "name": "lambert7",
      "pbrMetallicRoughness": {
        "baseColorFactor": [
          0.0769231,
          0.0769231,
          0.0769231,
          1.0
        ],
        "metallicFactor": 0.0,
        "roughnessFactor": 0.6
      }
    },
    {
      "doubleSided": true,
      "name": "lambert6",
      "pbrMetallicRoughness": {
        "baseColorFactor": [
          0.867,
          0.8345,
          0.6944,
          1.0
        ],
        "metallicFactor": 0.0,
        "roughnessFactor": 0.6
      }
    },
    {
      "doubleSided": true,
      "name": "phong1",
      "pbrMetallicRoughness": {
        "baseColorFactor": [
          0.0,
          0.0,
          0.0,
          1.0
        ],
        "metallicFactor": 0.0,
        "roughnessFactor": 0.7810061296905157
      }
    },
    {
      "doubleSided": true,
      "name": "phong2",
      "pbrMetallicRoughness": {
        "baseColorFactor": [
          0.0974026,
          0.0974026,
          0.0974026,
          1.0
        ],
        "metallicFactor": 0.0,
        "roughnessFactor": 0.925616386944643
      }
    }
  ],
  "meshes": [
    {
      "name": "bodymesh_lambert4_0",
      "primitives": [
        {
          "attributes": {
            "NORMAL": 1,
            "POSITION": 0,
            "TEXCOORD_0": 2
          },
          "indices": 3,
          "material": 0,
          "mode": 4
        }
      ]
    },
    {
      "name": "bodymesh_lambert5_0",
      "primitives": [
        {
          "attributes": {
            "NORMAL": 5,
            "POSITION": 4,
            "TEXCOORD_0": 6
          },
          "indices": 7,
          "material": 1,
          "mode": 4
        }
      ]
    },
    {
      "name": "hoves_lambert7_0",
      "primitives": [
        {
          "attributes": {
            "NORMAL": 9,
            "POSITION": 8,
            "TEXCOORD_0": 10
          },
          "indices": 11,
          "material": 2,
          "mode": 4
        }
      ]
    },
    {
      "name": "horns_lambert6_0",
      "primitives": [
        {
          "attributes": {
            "NORMAL": 13,
            "POSITION": 12,
            "TEXCOORD_0": 14
          },
          "indices": 15,
          "material": 3,
          "mode": 4
        }
      ]
    },
    {
      "name": "Leye_phong1_0",
      "primitives": [
        {
          "attributes": {
            "NORMAL": 17,
            "POSITION": 16,
            "TEXCOORD_0": 18
          },
          "indices": 19,
          "material": 4,
          "mode": 4
        }
      ]
    },
    {
      "name": "Reye_phong1_0",
      "primitives": [
        {
          "attributes": {
            "NORMAL": 21,
            "POSITION": 20,
            "TEXCOORD_0": 22
          },
          "indices": 23,
          "material": 4,
          "mode": 4
        }
      ]
    },
    {
      "name": "nose_phong2_0",
      "primitives": [
        {
          "attributes": {
            "NORMAL": 25,
            "POSITION": 24,
            "TEXCOORD_0": 26
          },
          "indices": 27,
          "material": 5,
          "mode": 4
        }
      ]
    }
  ],
  "nodes": [
    {
      "children": [
        1
      ],
      "matrix": [
        1.0,
        0.0,
        0.0,
        0.0,
        0.0,
        2.220446049250313e-16,
        -1.0,
        0.0,
        0.0,
        1.0,
        2.220446049250313e-16,
        0.0,
        0.0,
        0.0,
        0.0,
        1.0
      ],
      "name": "Sketchfab_model"
    },
    {
      "children": [
        2
      ],
      "matrix": [
        0.009999999776482582,
        0.0,
        0.0,
        0.0,
        0.0,
        0.0,
        0.009999999776482582,
        0.0,
        0.0,
        -0.009999999776482582,
        0.0,
        0.0,
        0.0,
        0.0,
        0.0,
        1.0
      ],
      "name": "6b651fd1d2ab4a3fb5f15c2b71598035.fbx"
    },
    {
      "children": [
        3
      ],
      "name": "RootNode"
    },
    {
      "children": [
        4,
        7,
        9,
        11,
        13,
        15
      ],
      "name": "geo"
    },
    {
      "children": [
        5,
        6
      ],
      "name": "bodymesh"
    },
    {
      "mesh": 0,
      "name": "bodymesh_lambert4_0"
    },
    {
      "mesh": 1,
      "name": "bodymesh_lambert5_0"
    },
    {
      "children": [
        8
      ],
      "name": "hoves"
    },
    {
      "mesh": 2,
      "name": "hoves_lambert7_0"
    },
    {
      "children": [
        10
      ],
      "name": "horns"
    },
    {
      "mesh": 3,
      "name": "horns_lambert6_0"
    },
    {
      "children": [
        12
      ],
      "name": "Leye"
    },
    {
      "mesh": 4,
      "name": "Leye_phong1_0"
    },
    {
      "children": [
        14
      ],
      "name": "Reye"
    },
    {
      "mesh": 5,
      "name": "Reye_phong1_0"
    },
    {
      "children": [
        16
      ],
      "name": "nose"
    },
    {
      "mesh": 6,
      "name": "nose_phong2_0"
    }
  ],
  "scene": 0,
  "scenes": [
    {
      "name": "Sketchfab_Scene",
      "nodes": [
        0
      ]
    }
  ]
}
