{
  "accessors": [
    {
      "bufferView": 2,
      "componentType": 5126,
      "count": 136,
      "max": [
        2.3575079441070557,
        2.357508420944214,
        3.375913143157959
      ],
      "min": [
        -2.3575079441070557,
        -2.3575077056884766,
        0.020675063133239746
      ],
      "type": "VEC3"
    },
    {
      "bufferView": 2,
      "byteOffset": 1632,
      "componentType": 5126,
      "count": 136,
      "max": [
        0.9960378408432007,
        0.9960378408432007,
        0.9826823472976685
      ],
      "min": [
        -0.9960378408432007,
        -0.9960378408432007,
        -0.6380929350852966
      ],
      "type": "VEC3"
    },
    {
      "bufferView": 1,
      "componentType": 5126,
      "count": 136,
      "max": [
        0.9679961800575256,
        0.9369982481002808
      ],
      "min": [
        0.06489337980747223,
        0.05320665240287781
      ],
      "type": "VEC2"
    },
    {
      "bufferView": 0,
      "componentType": 5125,
      "count": 636,
      "type": "SCALAR"
    }
  ],
  "asset": {
    "extras": {
      "author": "timetravelastronaut (https://sketchfab.com/timetravelastronaut)",
      "license": "CC-BY-4.0 (http://creativecommons.org/licenses/by/4.0/)",
      "source": "https://sketchfab.com/3d-models/uvmushroom-49e07d6a217240d4a69a81e22ab0f846",
      "title": "UVmushroom"
    },
    "generator": "Sketchfab-12.68.0",
    "version": "2.0"
  },
  "bufferViews": [
    {
      "buffer": 0,
      "byteLength": 2544,
      "name": "floatBufferViews",
      "target": 34963
    },
    {
      "buffer": 0,
      "byteLength": 1088,
      "byteOffset": 2544,
      "byteStride": 8,
      "name": "floatBufferViews",
      "target": 34962
    },
    {
      "buffer": 0,
      "byteLength": 3264,
      "byteOffset": 3632,
      "byteStride": 12,
      "name": "floatBufferViews",
      "target": 34962
    }
  ],
  "buffers": [
    {
      "byteLength": 6896,
      "uri": "scene.bin"
    }
  ],
  "images": [
    {
      "uri": "textures/Material.001_baseColor.png"
    }
  ],
  "materials": [
    {
      "doubleSided": true,
      "name": "Material.001",
      "pbrMetallicRoughness": {
        "baseColorTexture": {
          "index": 0
        },
        "metallicFactor": 0.0,
        "roughnessFactor": 0.8211145618000169
      }
    }
  ],
  "meshes": [
    {
      "name": "Cylinder_Material.001_0",
      "primitives": [
        {
          "attributes": {
            "NORMAL": 1,
            "POSITION": 0,
            "TEXCOORD_0": 2
          },
          "indices": 3,
          "material": 0,
          "mode": 4
        }
      ]
    }
  ],
  "nodes": [
    {
      "children": [
        1
      ],
      "matrix": [
        1.0,
        0.0,
        0.0,
        0.0,
        0.0,
        2.220446049250313e-16,
        -1.0,
        0.0,
        0.0,
        1.0,
        2.220446049250313e-16,
        0.0,
        0.0,
        0.0,
        0.0,
        1.0
      ],
      "name": "Sketchfab_model"
    },
    {
      "children": [
        2
      ],
      "matrix": [
        1.0,
        0.0,
        0.0,
        0.0,
        0.0,
        0.0,
        1.0,
        0.0,
        0.0,
        -1.0,
        0.0,
        0.0,
        0.0,
        0.0,
        0.0,
        1.0
      ],
      "name": "UVmushroom.fbx"
    },
    {
      "children": [
        3,
        5
      ],
      "name": "RootNode"
    },
    {
      "children": [
        4
      ],
      "matrix": [
        -65.15583280329096,
        -44.52713576570858,
        -61.41703047373549,
        0.0,
        -32.40134137821245,
        89.53957451233616,
        -30.542088974418615,
        0.0,
        68.59205472129975,
        -1.0718647115348782e-05,
        -72.7676336239627,
        0.0,
        735.88916015625,
        495.8309326171875,
        692.5791015625,
        1.0
      ],
      "name": "Camera"
    },
    {
      "name": "Object_4"
    },
    {
      "children": [
        6
      ],
      "matrix": [
        100.0,
        0.0,
        0.0,
        0.0,
        0.0,
        -1.629206793918314e-05,
        -99.99999999999868,
        0.0,
        0.0,
        99.99999999999868,
        -1.629206793918314e-05,
        0.0,
        0.0,
        0.0,
        0.0,
        1.0
      ],
      "name": "Cylinder"
    },
    {
      "mesh": 0,
      "name": "Cylinder_Material.001_0"
    }
  ],
  "samplers": [
    {
      "magFilter": 9729,
      "minFilter": 9987,
      "wrapS": 10497,
      "wrapT": 10497
    }
  ],
  "scene": 0,
  "scenes": [
    {
      "name": "Sketchfab_Scene",
      "nodes": [
        0
      ]
    }
  ],
  "textures": [
    {
      "sampler": 0,
      "source": 0
    }
  ]
}
