{
  "accessors": [
    {
      "bufferView": 2,
      "componentType": 5126,
      "count": 791,
      "max": [
        0.010450308211147785,
        3.186129093170166,
        0.5612632036209106
      ],
      "min": [
        -5.383571624755859,
        -3.4086410999298096,
        -9.126151084899902
      ],
      "type": "VEC3"
    },
    {
      "bufferView": 2,
      "byteOffset": 9492,
      "componentType": 5126,
      "count": 791,
      "max": [
        0.9883477091789246,
        0.9853829145431519,
        0.9996614456176758
      ],
      "min": [
        -0.9995954036712646,
        -0.9987092614173889,
        -0.9999891519546509
      ],
      "type": "VEC3"
    },
    {
      "bufferView": 3,
      "componentType": 5126,
      "count": 791,
      "max": [
        0.9146788716316223,
        0.9996618628501892,
        0.9987097382545471,
        1.0
      ],
      "min": [
        -0.8008775115013123,
        -0.9999891519546509,
        -0.9953883290290833,
        -1.0
      ],
      "type": "VEC4"
    },
    {
      "bufferView": 1,
      "componentType": 5126,
      "count": 791,
      "max": [
        0.9953558444976807,
        0.9839155673980713
      ],
      "min": [
        0.02666705846786499,
        0.009996209293603897
      ],
      "type": "VEC2"
    },
    {
      "bufferView": 0,
      "componentType": 5125,
      "count": 2502,
      "type": "SCALAR"
    }
  ],
  "asset": {
    "extras": {
      "author": "IDALGAME (https://sketchfab.com/IDALGAME)",
      "license": "CC-BY-4.0 (http://creativecommons.org/licenses/by/4.0/)",
      "source": "https://sketchfab.com/3d-models/bush-daisies-sunflower-699bae652f174beb964644c99a65241a",
      "title": "Bush, Daisies, Sunflower"
    },
    "generator": "Sketchfab-15.37.0",
    "version": "2.0"
  },
  "bufferViews": [
    {
      "buffer": 0,
      "byteLength": 10008,
      "name": "floatBufferViews",
      "target": 34963
    },
    {
      "buffer": 0,
      "byteLength": 6328,
      "byteOffset": 10008,
      "byteStride": 8,
      "name": "floatBufferViews",
      "target": 34962
    },
    {
      "buffer": 0,
      "byteLength": 18984,
      "byteOffset": 16336,
      "byteStride": 12,
      "name": "floatBufferViews",
      "target": 34962
    },
    {
      "buffer": 0,
      "byteLength": 12656,
      "byteOffset": 35320,
      "byteStride": 16,
      "name": "floatBufferViews",
      "target": 34962
    }
  ],
  "buffers": [
    {
      "byteLength": 47976,
      "uri": "scene.bin"
    }
  ],
  "extensionsRequired": [
    "KHR_materials_pbrSpecularGlossiness"
  ],
  "extensionsUsed": [
    "KHR_materials_pbrSpecularGlossiness"
  ],
  "images": [
    {
      "uri": "textures/Flowers_2_diffuse.png"
    },
    {
      "uri": "textures/Flowers_2_specularGlossiness.png"
    },
    {
      "uri": "textures/Flowers_2_normal.png"
    }
  ],
  "materials": [
    {
      "alphaCutoff": 0.6319697062,
      "alphaMode": "MASK",
      "doubleSided": true,
      "extensions": {
        "KHR_materials_pbrSpecularGlossiness": {
          "diffuseFactor": [
            1.0,
            1.0,
            1.0,
            1.0
          ],
          "diffuseTexture": {
            "index": 0
          },
          "glossinessFactor": 1.0,
          "specularFactor": [
            0.3410606153,
            0.3410606153,
            0.3410606153
          ],
          "specularGlossinessTexture": {
            "index": 1
          }
        }
      },
      "name": "Flowers_2",
      "normalTexture": {
        "index": 2
      }
    }
  ],
  "meshes": [
    {
      "name": "flowers_2_01_Flowers_2_0",
      "primitives": [
        {
          "attributes": {
            "NORMAL": 1,
            "POSITION": 0,
            "TANGENT": 2,
            "TEXCOORD_0": 3
          },
          "indices": 4,
          "material": 0,
          "mode": 4
        }
      ]
    }
  ],
  "nodes": [
    {
      "children": [
        1
      ],
      "matrix": [
        1.0,
        0.0,
        0.0,
        0.0,
        0.0,
        2.220446049250313e-16,
        -1.0,
        0.0,
        0.0,
        1.0,
        2.220446049250313e-16,
        0.0,
        0.0,
        0.0,
        0.0,
        1.0
      ],
      "name": "Sketchfab_model"
    },
    {
      "children": [
        2
      ],
      "matrix": [
        1.0,
        0.0,
        0.0,
        0.0,
        0.0,
        0.0,
        1.0,
        0.0,
        0.0,
        -1.0,
        0.0,
        0.0,
        0.0,
        0.0,
        0.0,
        1.0
      ],
      "name": "flowers_2.fbx"
    },
    {
      "children": [
        3
      ],
      "name": "RootNode"
    },
    {
      "children": [
        4
      ],
      "matrix": [
        -4.371139006309477e-06,
        -99.9999999999999,
        9.475005682824111e-07,
        0.0,
        -97.47303832827512,
        4.049024948660218e-06,
        -22.33846008691266,
        0.0,
        22.338460086912598,
        -1.900002732924122e-06,
        -97.47303832827524,
        0.0,
        63.21916580200195,
        -6.440646393457428e-05,
        -445.09649658203125,
        1.0
      ],
      "name": "flowers_2_01"
    },
    {
      "mesh": 0,
      "name": "flowers_2_01_Flowers_2_0"
    }
  ],
  "samplers": [
    {
      "magFilter": 9729,
      "minFilter": 9987,
      "wrapS": 10497,
      "wrapT": 10497
    }
  ],
  "scene": 0,
  "scenes": [
    {
      "name": "Sketchfab_Scene",
      "nodes": [
        0
      ]
    }
  ],
  "textures": [
    {
      "sampler": 0,
      "source": 0
    },
    {
      "sampler": 0,
      "source": 1
    },
    {
      "sampler": 0,
      "source": 2
    }
  ]
}
