{
  "accessors": [
    {
      "bufferView": 2,
      "componentType": 5126,
      "count": 5705,
      "max": [
        0.8603969812393188,
        0.8906350135803223,
        0.7060350179672241
      ],
      "min": [
        -0.8857560157775879,
        -1.0270580053329468,
        -0.5778629779815674
      ],
      "type": "VEC3"
    },
    {
      "bufferView": 2,
      "byteOffset": 68460,
      "componentType": 5126,
      "count": 5705,
      "max": [
        0.9994182586669922,
        0.9968014359474182,
        0.9981365203857422
      ],
      "min": [
        -0.9998964071273804,
        -0.9963746070861816,
        -0.9999967813491821
      ],
      "type": "VEC3"
    },
    {
      "bufferView": 3,
      "componentType": 5126,
      "count": 5705,
      "max": [
        0.9999762177467346,
        0.9915586709976196,
        0.9999661445617676,
        1.0
      ],
      "min": [
        -0.9946579337120056,
        -0.9796877503395081,
        -0.9985362887382507,
        1.0
      ],
      "type": "VEC4"
    },
    {
      "bufferView": 1,
      "componentType": 5126,
      "count": 5705,
      "max": [
        0.9980400204658508,
        0.8841999769210815
      ],
      "min": [
        0.0019499999471008778,
        0.0019499999471008778
      ],
      "type": "VEC2"
    },
    {
      "bufferView": 0,
      "componentType": 5125,
      "count": 33594,
      "type": "SCALAR"
    }
  ],
  "asset": {
    "extras": {
      "author": "luxmaterium (https://sketchfab.com/luxmaterium)",
      "license": "CC-BY-4.0 (http://creativecommons.org/licenses/by/4.0/)",
      "source": "https://sketchfab.com/3d-models/small-rock-03-ce9b8194200b4e4faa1b6fa74513c18d",
      "title": "Small Rock 03"
    },
    "generator": "Sketchfab-12.67.0",
    "version": "2.0"
  },
  "bufferViews": [
    {
      "buffer": 0,
      "byteLength": 134376,
      "name": "floatBufferViews",
      "target": 34963
    },
    {
      "buffer": 0,
      "byteLength": 45640,
      "byteOffset": 134376,
      "byteStride": 8,
      "name": "floatBufferViews",
      "target": 34962
    },
    {
      "buffer": 0,
      "byteLength": 136920,
      "byteOffset": 180016,
      "byteStride": 12,
      "name": "floatBufferViews",
      "target": 34962
    },
    {
      "buffer": 0,
      "byteLength": 91280,
      "byteOffset": 316936,
      "byteStride": 16,
      "name": "floatBufferViews",
      "target": 34962
    }
  ],
  "buffers": [
    {
      "byteLength": 408216,
      "uri": "scene.bin"
    }
  ],
  "images": [
    {
      "uri": "textures/defaultMat_baseColor.png"
    },
    {
      "uri": "textures/defaultMat_metallicRoughness.png"
    },
    {
      "uri": "textures/defaultMat_normal.png"
    }
  ],
  "materials": [
    {
      "doubleSided": true,
      "name": "defaultMat",
      "normalTexture": {
        "index": 2
      },
      "occlusionTexture": {
        "index": 1
      },
      "pbrMetallicRoughness": {
        "baseColorTexture": {
          "index": 0
        },
        "metallicFactor": 0.0,
        "metallicRoughnessTexture": {
          "index": 1
        }
      }
    }
  ],
  "meshes": [
    {
      "name": "Object_0",
      "primitives": [
        {
          "attributes": {
            "NORMAL": 1,
            "POSITION": 0,
            "TANGENT": 2,
            "TEXCOORD_0": 3
          },
          "indices": 4,
          "material": 0,
          "mode": 4
        }
      ]
    }
  ],
  "nodes": [
    {
      "children": [
        1
      ],
      "matrix": [
        1.0,
        0.0,
        0.0,
        0.0,
        0.0,
        2.220446049250313e-16,
        -1.0,
        0.0,
        0.0,
        1.0,
        2.220446049250313e-16,
        0.0,
        0.0,
        0.0,
        0.0,
        1.0
      ],
      "name": "Sketchfab_model"
    },
    {
      "children": [
        2
      ],
      "name": "smallRock_03_LOD_0.obj.cleaner.materialmerger.gles"
    },
    {
      "mesh": 0,
      "name": "Object_2"
    }
  ],
  "samplers": [
    {
      "magFilter": 9729,
      "minFilter": 9987,
      "wrapS": 10497,
      "wrapT": 10497
    }
  ],
  "scene": 0,
  "scenes": [
    {
      "name": "Sketchfab_Scene",
      "nodes": [
        0
      ]
    }
  ],
  "textures": [
    {
      "sampler": 0,
      "source": 0
    },
    {
      "sampler": 0,
      "source": 1
    },
    {
      "sampler": 0,
      "source": 2
    }
  ]
}
