{
  "accessors": [
    {
      "bufferView": 2,
      "componentType": 5126,
      "count": 10026,
      "max": [
        0.014592823572456837,
        0.010663901455700397,
        0.00992681086063385
      ],
      "min": [
        -0.015061141923069954,
        -0.011756719090044498,
        -0.008357129991054535
      ],
      "type": "VEC3"
    },
    {
      "bufferView": 2,
      "byteOffset": 120312,
      "componentType": 5126,
      "count": 10026,
      "max": [
        0.999556303024292,
        0.9999802112579346,
        0.9994461536407471
      ],
      "min": [
        -0.9999969601631165,
        -0.999190628528595,
        -0.9998555779457092
      ],
      "type": "VEC3"
    },
    {
      "bufferView": 3,
      "componentType": 5126,
      "count": 10026,
      "max": [
        0.9853982329368591,
        0.988792359828949,
        0.9767414331436157,
        1.0
      ],
      "min": [
        -0.9970177412033081,
        -0.9443497061729431,
        -0.9988685250282288,
        1.0
      ],
      "type": "VEC4"
    },
    {
      "bufferView": 1,
      "componentType": 5126,
      "count": 10026,
      "max": [
        0.9724909067153931,
        0.9993221759796143
      ],
      "min": [
        0.0007003468344919384,
        0.005938887596130371
      ],
      "type": "VEC2"
    },
    {
      "bufferView": 0,
      "componentType": 5125,
      "count": 54486,
      "type": "SCALAR"
    }
  ],
  "asset": {
    "extras": {
      "author": "Oragani (https://sketchfab.com/Oragani)",
      "license": "CC-BY-NC-4.0 (http://creativecommons.org/licenses/by-nc/4.0/)",
      "source": "https://sketchfab.com/3d-models/small-pbr-rock-7276e3cb14cf492aae23bbd9586d635e",
      "title": "Small PBR Rock"
    },
    "generator": "Sketchfab-12.64.0",
    "version": "2.0"
  },
  "bufferViews": [
    {
      "buffer": 0,
      "byteLength": 217944,
      "name": "floatBufferViews",
      "target": 34963
    },
    {
      "buffer": 0,
      "byteLength": 80208,
      "byteOffset": 217944,
      "byteStride": 8,
      "name": "floatBufferViews",
      "target": 34962
    },
    {
      "buffer": 0,
      "byteLength": 240624,
      "byteOffset": 298152,
      "byteStride": 12,
      "name": "floatBufferViews",
      "target": 34962
    },
    {
      "buffer": 0,
      "byteLength": 160416,
      "byteOffset": 538776,
      "byteStride": 16,
      "name": "floatBufferViews",
      "target": 34962
    }
  ],
  "buffers": [
    {
      "byteLength": 699192,
      "uri": "scene.bin"
    }
  ],
  "images": [
    {
      "uri": "textures/Material0_baseColor.png"
    },
    {
      "uri": "textures/Material0_metallicRoughness.png"
    },
    {
      "uri": "textures/Material0_normal.png"
    }
  ],
  "materials": [
    {
      "doubleSided": true,
      "name": "Material0",
      "normalTexture": {
        "index": 2
      },
      "occlusionTexture": {
        "index": 1
      },
      "pbrMetallicRoughness": {
        "baseColorTexture": {
          "index": 0
        },
        "metallicFactor": 0.0,
        "metallicRoughnessTexture": {
          "index": 1
        }
      }
    }
  ],
  "meshes": [
    {
      "name": "Stereo textured mesh_Material0_0",
      "primitives": [
        {
          "attributes": {
            "NORMAL": 1,
            "POSITION": 0,
            "TANGENT": 2,
            "TEXCOORD_0": 3
          },
          "indices": 4,
          "material": 0,
          "mode": 4
        }
      ]
    }
  ],
  "nodes": [
    {
      "children": [
        1
      ],
      "matrix": [
        1.0,
        0.0,
        0.0,
        0.0,
        0.0,
        2.220446049250313e-16,
        -1.0,
        0.0,
        0.0,
        1.0,
        2.220446049250313e-16,
        0.0,
        0.0,
        0.0,
        0.0,
        1.0
      ],
      "name": "Sketchfab_model"
    },
    {
      "children": [
        2
      ],
      "matrix": [
        0.009999999776482582,
        0.0,
        0.0,
        0.0,
        0.0,
        0.0,
        0.009999999776482582,
        0.0,
        0.0,
        -0.009999999776482582,
        0.0,
        0.0,
        0.0,
        0.0,
        0.0,
        1.0
      ],
      "name": "6e946010cd3d444ea70c9f6c20cf5c37.fbx"
    },
    {
      "children": [
        3
      ],
      "name": "RootNode"
    },
    {
      "children": [
        4
      ],
      "matrix": [
        100.0,
        0.0,
        0.0,
        0.0,
        0.0,
        -1.629206793918314e-05,
        -99.99999999999868,
        0.0,
        0.0,
        99.99999999999868,
        -1.629206793918314e-05,
        0.0,
        0.0,
        0.0,
        0.0,
        1.0
      ],
      "name": "Stereo textured mesh"
    },
    {
      "mesh": 0,
      "name": "Stereo textured mesh_Material0_0"
    }
  ],
  "samplers": [
    {
      "magFilter": 9729,
      "minFilter": 9987,
      "wrapS": 10497,
      "wrapT": 10497
    }
  ],
  "scene": 0,
  "scenes": [
    {
      "name": "Sketchfab_Scene",
      "nodes": [
        0
      ]
    }
  ],
  "textures": [
    {
      "sampler": 0,
      "source": 0
    },
    {
      "sampler": 0,
      "source": 1
    },
    {
      "sampler": 0,
      "source": 2
    }
  ]
}
